<?xml version="1.0" encoding="UTF-8" standalone="no"?>
<svg
   width="16"
   height="16"
   fill="currentColor"
   class="bi bi-clipboard-fill"
   viewBox="0 0 16 16"
   version="1.1"
   id="svg1"
   sodipodi:docname="clipboard-fill.svg"
   xmlns:inkscape="http://www.inkscape.org/namespaces/inkscape"
   xmlns:sodipodi="http://sodipodi.sourceforge.net/DTD/sodipodi-0.dtd"
   xmlns="http://www.w3.org/2000/svg"
   xmlns:svg="http://www.w3.org/2000/svg">
  <defs
     id="defs1" />
  <sodipodi:namedview
     id="namedview1"
     pagecolor="#ffffff"
     bordercolor="#000000"
     borderopacity="0.25"
     inkscape:showpageshadow="2"
     inkscape:pageopacity="0.0"
     inkscape:pagecheckerboard="0"
     inkscape:deskcolor="#d1d1d1" />
  <path
     fill-rule="evenodd"
     d="M 10,1.5 A 0.5,0.5 0 0 0 9.5,1 h -3 A 0.5,0.5 0 0 0 6,1.5 v 1 A 0.5,0.5 0 0 0 6.5,3 h 3 A 0.5,0.5 0 0 0 10,2.5 Z m -5,0 A 1.5,1.5 0 0 1 6.5,0 h 3 A 1.5,1.5 0 0 1 11,1.5 v 1 A 1.5,1.5 0 0 1 9.5,4 h -3 A 1.5,1.5 0 0 1 5,2.5 Z m -2,0 h 1 v 1 A 2.5,2.5 0 0 0 6.5,5 h 3 A 2.5,2.5 0 0 0 12,2.5 v -1 h 1 a 2,2 0 0 1 2,2 V 14 a 2,2 0 0 1 -2,2 H 3 A 2,2 0 0 1 1,14 V 3.5 a 2,2 0 0 1 2,-2"
     id="path1"
     style="fill:#ffffff" />
</svg>
