<?xml version="1.0" encoding="UTF-8" standalone="no"?>
<svg
   width="16"
   height="16"
   fill="currentColor"
   class="bi bi-diagram-2-fill"
   viewBox="0 0 16 16"
   version="1.1"
   id="svg1"
   sodipodi:docname="diagram-2-fill.svg"
   xmlns:inkscape="http://www.inkscape.org/namespaces/inkscape"
   xmlns:sodipodi="http://sodipodi.sourceforge.net/DTD/sodipodi-0.dtd"
   xmlns="http://www.w3.org/2000/svg"
   xmlns:svg="http://www.w3.org/2000/svg">
  <defs
     id="defs1" />
  <sodipodi:namedview
     id="namedview1"
     pagecolor="#ffffff"
     bordercolor="#000000"
     borderopacity="0.25"
     inkscape:showpageshadow="2"
     inkscape:pageopacity="0.0"
     inkscape:pagecheckerboard="0"
     inkscape:deskcolor="#d1d1d1" />
  <path
     fill-rule="evenodd"
     d="M 6,3.5 A 1.5,1.5 0 0 1 7.5,2 h 1 A 1.5,1.5 0 0 1 10,3.5 v 1 A 1.5,1.5 0 0 1 8.5,6 V 7 H 11 a 0.5,0.5 0 0 1 0.5,0.5 v 1 a 0.5,0.5 0 0 1 -1,0 V 8 h -5 v 0.5 a 0.5,0.5 0 0 1 -1,0 v -1 A 0.5,0.5 0 0 1 5,7 H 7.5 V 6 A 1.5,1.5 0 0 1 6,4.5 Z m -3,8 A 1.5,1.5 0 0 1 4.5,10 h 1 A 1.5,1.5 0 0 1 7,11.5 v 1 A 1.5,1.5 0 0 1 5.5,14 h -1 A 1.5,1.5 0 0 1 3,12.5 Z m 6,0 A 1.5,1.5 0 0 1 10.5,10 h 1 a 1.5,1.5 0 0 1 1.5,1.5 v 1 A 1.5,1.5 0 0 1 11.5,14 h -1 A 1.5,1.5 0 0 1 9,12.5 Z"
     id="path1"
     style="fill:#ffffff" />
</svg>
