<?xml version="1.0" encoding="UTF-8" standalone="no"?>
<svg
   width="16"
   height="16"
   fill="currentColor"
   class="bi bi-grid-3x2-gap-fill"
   viewBox="0 0 16 16"
   version="1.1"
   id="svg1"
   sodipodi:docname="grid-3x2-gap-fill.svg"
   xmlns:inkscape="http://www.inkscape.org/namespaces/inkscape"
   xmlns:sodipodi="http://sodipodi.sourceforge.net/DTD/sodipodi-0.dtd"
   xmlns="http://www.w3.org/2000/svg"
   xmlns:svg="http://www.w3.org/2000/svg">
  <defs
     id="defs1" />
  <sodipodi:namedview
     id="namedview1"
     pagecolor="#ffffff"
     bordercolor="#000000"
     borderopacity="0.25"
     inkscape:showpageshadow="2"
     inkscape:pageopacity="0.0"
     inkscape:pagecheckerboard="0"
     inkscape:deskcolor="#d1d1d1" />
  <path
     d="M 1,4 A 1,1 0 0 1 2,3 H 4 A 1,1 0 0 1 5,4 V 6 A 1,1 0 0 1 4,7 H 2 A 1,1 0 0 1 1,6 Z M 6,4 A 1,1 0 0 1 7,3 h 2 a 1,1 0 0 1 1,1 V 6 A 1,1 0 0 1 9,7 H 7 A 1,1 0 0 1 6,6 Z m 5,0 a 1,1 0 0 1 1,-1 h 2 a 1,1 0 0 1 1,1 V 6 A 1,1 0 0 1 14,7 H 12 A 1,1 0 0 1 11,6 Z M 1,9 A 1,1 0 0 1 2,8 h 2 a 1,1 0 0 1 1,1 v 2 A 1,1 0 0 1 4,12 H 2 A 1,1 0 0 1 1,11 Z M 6,9 A 1,1 0 0 1 7,8 h 2 a 1,1 0 0 1 1,1 v 2 A 1,1 0 0 1 9,12 H 7 A 1,1 0 0 1 6,11 Z m 5,0 a 1,1 0 0 1 1,-1 h 2 a 1,1 0 0 1 1,1 v 2 a 1,1 0 0 1 -1,1 h -2 a 1,1 0 0 1 -1,-1 z"
     id="path1"
     style="fill:#ffffff" />
</svg>
