<?xml version="1.0" encoding="UTF-8" standalone="no"?>
<svg
   width="16"
   height="16"
   fill="currentColor"
   class="bi bi-map-fill"
   viewBox="0 0 16 16"
   version="1.1"
   id="svg1"
   sodipodi:docname="map-fill.svg"
   xmlns:inkscape="http://www.inkscape.org/namespaces/inkscape"
   xmlns:sodipodi="http://sodipodi.sourceforge.net/DTD/sodipodi-0.dtd"
   xmlns="http://www.w3.org/2000/svg"
   xmlns:svg="http://www.w3.org/2000/svg">
  <defs
     id="defs1" />
  <sodipodi:namedview
     id="namedview1"
     pagecolor="#ffffff"
     bordercolor="#000000"
     borderopacity="0.25"
     inkscape:showpageshadow="2"
     inkscape:pageopacity="0.0"
     inkscape:pagecheckerboard="0"
     inkscape:deskcolor="#d1d1d1" />
  <path
     fill-rule="evenodd"
     d="M 16,0.5 A 0.5,0.5 0 0 0 15.402,0.01 L 10.5,0.99 5.598,0.01 a 0.5,0.5 0 0 0 -0.196,0 l -5,1 A 0.5,0.5 0 0 0 0,1.5 v 14 a 0.5,0.5 0 0 0 0.598,0.49 l 4.902,-0.98 4.902,0.98 a 0.5,0.5 0 0 0 0.196,0 l 5,-1 A 0.5,0.5 0 0 0 16,14.5 Z M 5,14.09 V 1.11 L 5.5,1.01 6,1.11 V 14.09 L 5.598,14.01 a 0.5,0.5 0 0 0 -0.196,0 z m 5,0.8 V 1.91 l 0.402,0.08 a 0.5,0.5 0 0 0 0.196,0 L 11,1.91 v 12.98 l -0.5,0.1 z"
     id="path1"
     style="fill:#ffffff" />
</svg>
