<?xml version="1.0" encoding="UTF-8" standalone="no"?>
<svg
   width="16"
   height="16"
   fill="currentColor"
   class="bi bi-minecart"
   viewBox="0 0 16 16"
   version="1.1"
   id="svg1"
   sodipodi:docname="minecart.svg"
   inkscape:export-filename="minecart.png"
   inkscape:export-xdpi="96"
   inkscape:export-ydpi="96"
   xmlns:inkscape="http://www.inkscape.org/namespaces/inkscape"
   xmlns:sodipodi="http://sodipodi.sourceforge.net/DTD/sodipodi-0.dtd"
   xmlns="http://www.w3.org/2000/svg"
   xmlns:svg="http://www.w3.org/2000/svg">
  <defs
     id="defs1" />
  <sodipodi:namedview
     id="namedview1"
     pagecolor="#ffffff"
     bordercolor="#000000"
     borderopacity="0.25"
     inkscape:showpageshadow="2"
     inkscape:pageopacity="0.0"
     inkscape:pagecheckerboard="0"
     inkscape:deskcolor="#d1d1d1" />
  <path
     d="m 4,15 a 1,1 0 1 1 0,-2 1,1 0 0 1 0,2 m 0,1 a 2,2 0 1 0 0,-4 2,2 0 0 0 0,4 m 8,-1 a 1,1 0 1 1 0,-2 1,1 0 0 1 0,2 m 0,1 a 2,2 0 1 0 0,-4 2,2 0 0 0 0,4 M 0.115,3.18 A 0.5,0.5 0 0 1 0.5,3 h 15 a 0.5,0.5 0 0 1 0.491,0.592 l -1.5,8 A 0.5,0.5 0 0 1 14,12 H 2 A 0.5,0.5 0 0 1 1.509,11.592 l -1.5,-8 A 0.5,0.5 0 0 1 0.115,3.181 Z M 1.102,4 2.415,11 h 11.17 l 1.313,-7 z"
     id="path1" />
  <path
     style="fill:#000000;fill-opacity:1;stroke:#000000;stroke-width:0.23622"
     d="M 2.4389054,10.922213 C 2.4081519,10.830046 1.1551283,4.1159161 1.1557964,4.046875 1.1560459,4.0210937 4.2359375,4 8,4 c 5.434647,0 6.843242,0.016086 6.841286,0.078125 -0.0014,0.042969 -0.290814,1.6109375 -0.64324,3.484375 l -0.640777,3.40625 -5.5460909,0.01596 c -4.4053957,0.01268 -5.5514765,-1.75e-4 -5.5722727,-0.0625 z"
     id="path13" />
  <path
     style="fill:#000000;fill-opacity:1;stroke:#000000;stroke-width:0.23622"
     d="M 3.8111924,14.936731 C 3.5298353,14.876994 3.3211015,14.717452 3.1680726,14.445174 2.9986285,14.143688 2.9944917,13.879572 3.1543071,13.566308 c 0.3477578,-0.681661 1.296501,-0.689592 1.6761985,-0.01401 0.1748885,0.311172 0.1753221,0.583463 0.00142,0.892877 -0.2177591,0.38745 -0.6134902,0.578023 -1.020735,0.491557 z"
     id="path14" />
  <path
     style="fill:#000000;fill-opacity:1;stroke:#000000;stroke-width:0.23622"
     d="m 11.811192,14.936731 c -0.281357,-0.05974 -0.490091,-0.219279 -0.643119,-0.491557 -0.169445,-0.301486 -0.173581,-0.565602 -0.01377,-0.878866 0.347758,-0.681661 1.296501,-0.689592 1.676199,-0.01401 0.174888,0.311172 0.175322,0.583463 0.0014,0.892877 -0.217759,0.38745 -0.61349,0.578023 -1.020735,0.491557 z"
     id="path15" />
</svg>
