<?xml version="1.0" encoding="UTF-8" standalone="no"?>
<svg
   width="16"
   height="16"
   fill="currentColor"
   class="bi bi-shuffle"
   viewBox="0 0 16 16"
   version="1.1"
   id="svg2"
   sodipodi:docname="shuffle.svg"
   xmlns:inkscape="http://www.inkscape.org/namespaces/inkscape"
   xmlns:sodipodi="http://sodipodi.sourceforge.net/DTD/sodipodi-0.dtd"
   xmlns="http://www.w3.org/2000/svg"
   xmlns:svg="http://www.w3.org/2000/svg">
  <defs
     id="defs2" />
  <sodipodi:namedview
     id="namedview2"
     pagecolor="#ffffff"
     bordercolor="#000000"
     borderopacity="0.25"
     inkscape:showpageshadow="2"
     inkscape:pageopacity="0.0"
     inkscape:pagecheckerboard="0"
     inkscape:deskcolor="#d1d1d1" />
  <path
     fill-rule="evenodd"
     d="M 0,3.5 A 0.5,0.5 0 0 1 0.5,3 H 1 C 3.202,3 4.827,4.24 5.874,5.418 6.364,5.97 6.739,6.52 7,6.95 7.26,6.52 7.636,5.97 8.126,5.418 9.173,4.24 10.798,3 13,3 V 4 C 11.202,4 9.827,5.01 8.874,6.082 A 9.6,9.6 0 0 0 7.556,8 9.6,9.6 0 0 0 8.873,9.918 C 9.828,10.99 11.204,12 13,12 v 1 C 10.798,13 9.173,11.76 8.126,10.582 A 10.6,10.6 0 0 1 7,9.05 C 6.74,9.48 6.364,10.03 5.874,10.582 4.827,11.76 3.202,13 1,13 H 0.5 a 0.5,0.5 0 0 1 0,-1 H 1 C 2.798,12 4.173,10.99 5.126,9.918 A 9.6,9.6 0 0 0 6.444,8 9.6,9.6 0 0 0 5.127,6.082 C 4.172,5.01 2.796,4 1,4 H 0.5 A 0.5,0.5 0 0 1 0,3.5"
     id="path1"
     style="fill:#ffffff" />
  <path
     d="M 13,5.466 V 1.534 a 0.25,0.25 0 0 1 0.41,-0.192 l 2.36,1.966 c 0.12,0.1 0.12,0.284 0,0.384 L 13.41,5.658 A 0.25,0.25 0 0 1 13,5.466 m 0,9 v -3.932 a 0.25,0.25 0 0 1 0.41,-0.192 l 2.36,1.966 c 0.12,0.1 0.12,0.284 0,0.384 l -2.36,1.966 A 0.25,0.25 0 0 1 13,14.466"
     id="path2"
     style="fill:#ffffff" />
</svg>
